<?xml version="1.0" encoding="UTF-8"?>
<svg version="1.1" xmlns="http://www.w3.org/2000/svg" width="512" height="512">
<path d="M0 0 C0.66 0.66 1.32 1.32 2 2 C1.6913753 4.33672984 1.35543427 6.66993089 1 9 C1.3403125 10.299375 1.3403125 10.299375 1.6875 11.625 C2 14 2 14 0.4296875 16.35546875 C-2.28506556 19.31027232 -5.25458607 21.4687058 -8.5625 23.6875 C-29.74628538 38.45137177 -44.52876904 57.62356693 -50 83 C-49.00033203 82.60167969 -49.00033203 82.60167969 -47.98046875 82.1953125 C-27.01935888 74.1626634 -6.03880001 75.49327112 14.45703125 84.33203125 C22.05842078 87.9106347 35.08684309 94.17368617 39 102 C39.12283119 104.33093612 39.17554232 106.66586039 39.1875 109 C39.20167969 110.258125 39.21585937 111.51625 39.23046875 112.8125 C39 116 39 116 37 118 C33.70076784 119.1114615 30.31686218 119.31115378 26.86328125 119.61328125 C-1.5799926 120.86782142 -1.5799926 120.86782142 -27 132 C-26.38511719 132.18175781 -25.77023437 132.36351562 -25.13671875 132.55078125 C-24.32847656 132.80214844 -23.52023437 133.05351562 -22.6875 133.3125 C-21.88699219 133.55613281 -21.08648437 133.79976562 -20.26171875 134.05078125 C-17.85072626 135.06264856 -16.61828487 135.9632801 -15 138 C-13.13955748 145.28673319 -13.49835635 153.63631823 -16.5625 160.5 C-22.8114401 166.90916933 -30.38408837 167.90865119 -39 169 C-38.38253906 169.86238281 -37.76507813 170.72476563 -37.12890625 171.61328125 C-19.15765667 197.27985707 -9.01784768 228.01362425 -8.76171875 259.40234375 C-8.75187958 260.38916641 -8.74204041 261.37598907 -8.73190308 262.39271545 C-8.40418848 303.76658193 -8.40418848 303.76658193 -13 322 C-13.24669434 322.99741211 -13.49338867 323.99482422 -13.74755859 325.02246094 C-25.66902171 371.87403054 -52.12936913 414.93529325 -94.07910156 440.25488281 C-118.52682199 454.57998738 -148.26976014 461.12414753 -176.3125 454.4375 C-204.55102474 446.88979555 -228.42300533 427.63641178 -243.36621094 402.72216797 C-253.16828323 385.58455791 -259.0135331 368.28533733 -263 349 C-263.2371875 347.85660156 -263.474375 346.71320313 -263.71875 345.53515625 C-270.83420707 304.04576317 -265.87425673 258.52387358 -246.91357422 220.83007812 C-245.95137292 218.90258989 -245.02292646 216.96108902 -244.09765625 215.015625 C-238.22485815 202.79100537 -231.40759584 191.55319169 -222.7265625 181.0859375 C-220.9643765 179.01189775 -220.9643765 179.01189775 -219.3984375 176.7265625 C-218.93695313 176.15679687 -218.47546875 175.58703125 -218 175 C-217.34 175 -216.68 175 -216 175 C-215.66355469 174.18015625 -215.66355469 174.18015625 -215.3203125 173.34375 C-203.04582801 151.55472428 -171.87895116 137.09851897 -149.09179688 130.55029297 C-145.42025831 129.58441436 -141.7151808 128.77858865 -138 128 C-138.52207031 127.319375 -139.04414063 126.63875 -139.58203125 125.9375 C-143.06102885 121.35570281 -146.507862 116.78373456 -149.6953125 111.9921875 C-154.63579955 104.56954044 -159.2942243 98.16032769 -166.1015625 92.30859375 C-170.03059241 87.53069935 -169 80.89041143 -169 75 C-161.03175084 71.01587542 -147.9330574 75.06705822 -140.05761719 77.6328125 C-136.31974939 78.96353167 -132.64875586 80.44327954 -129 82 C-136.15875423 58.32480256 -145.72529792 36.87555507 -161.78515625 17.90234375 C-163 16 -163 16 -163 12 C-162.34 11.67 -161.68 11.34 -161 11 C-161.99 9.515 -161.99 9.515 -163 8 C-163 6.68 -163 5.36 -163 4 C-156.49981085 4.50994533 -151.01279767 5.7325106 -144.9375 8.0625 C-143.70749268 8.527771 -143.70749268 8.527771 -142.45263672 9.00244141 C-121.15924323 17.24411622 -101.42264353 29.034217 -88 48 C-87.42894531 47.21238281 -86.85789062 46.42476562 -86.26953125 45.61328125 C-70.69821468 24.52794053 -48.85809222 5.00605714 -22.15283203 0.27246094 C-15.07324447 -0.62352678 -7.07153872 -1.12577004 0 0 Z " fill="#9A7427" transform="translate(457,32)"/>
<path d="M0 0 C84.48 0 168.96 0 256 0 C254 6 254 6 253 8 C253.99 8 254.98 8 256 8 C254.61886553 12.54799557 252.75826286 16.64363409 250.5078125 20.8125 C250.1661203 21.45413086 249.8244281 22.09576172 249.47238159 22.75683594 C248.36117356 24.84037842 247.24323272 26.9202205 246.125 29 C245.34604321 30.45686503 244.56740018 31.91389786 243.7890625 33.37109375 C239.10784835 42.12416781 234.37580808 50.84889382 229.60009766 59.55078125 C225.15889503 67.66119525 220.82846839 75.82909334 216.5 84 C211.21078611 93.98373605 205.88088304 103.94123721 200.45043945 113.84912109 C196.48792229 121.08560671 192.57976565 128.3505215 188.6875 135.625 C188.37295868 136.21283264 188.05841736 136.80066528 187.73434448 137.40631104 C186.13159397 140.40209204 184.52948952 143.39821795 182.92773438 146.39453125 C179.76729175 152.30627703 176.60257591 158.21573374 173.4375 164.125 C172.82221436 165.27379639 172.20692871 166.42259277 171.57299805 167.60620117 C166.13572083 177.75421364 160.6802056 187.89232552 155.21875 198.02734375 C154.72962159 198.95250447 154.24049318 199.8776652 153.7365427 200.83086109 C152.61189889 202.88330268 151.43067702 204.90613316 150.18558407 206.88782024 C144.99901987 215.46028964 143.9946697 222.46907584 144.11352539 232.3371582 C144.10561604 233.82676031 144.0946408 235.31634874 144.08087158 236.8059082 C144.05240611 240.80747241 144.06625163 244.80785249 144.08831334 248.80941415 C144.10405415 253.00683521 144.08002694 257.20403508 144.06040955 261.40141296 C144.02929434 269.33075097 144.03339486 277.25965466 144.05048412 285.18901938 C144.06821704 294.22430329 144.04617934 303.25935752 144.02097714 312.29460776 C143.97006514 330.86323509 143.97377257 349.43131034 144 368 C159.84 368 175.68 368 192 368 C192 375.92 192 383.84 192 392 C149.76 392 107.52 392 64 392 C64 384.08 64 376.16 64 368 C79.84 368 95.68 368 112 368 C112.25503326 348.73361938 112.43636915 329.47087361 112.48965549 310.20297241 C112.51666442 301.25271362 112.57445897 292.30480083 112.7097168 283.35546875 C112.8277872 275.53781088 112.88302269 267.7224139 112.86853737 259.90384102 C112.86293771 255.77822762 112.88487218 251.65770849 112.98260689 247.53314209 C113.5177238 223.75360603 108.73868396 207.49945107 96.06803703 187.34243774 C93.07749925 182.50902025 90.41633215 177.51678587 87.75 172.5 C86.7979745 170.75649898 85.84385612 169.01413748 84.88671875 167.2734375 C81.75939038 161.56769819 78.65945308 155.84727023 75.5625 150.125 C75.02206055 149.12662109 74.48162109 148.12824219 73.92480469 147.09960938 C72.83014739 145.07719904 71.73558385 143.05473796 70.64111328 141.03222656 C67.92877862 136.02074241 65.21428739 131.01042671 62.5 126 C61.41665618 124.00000568 60.33332285 122.00000568 59.25 120 C58.71375 119.01 58.1775 118.02 57.625 117 C26.75 60 26.75 60 25.12280273 56.99584961 C24.04689863 55.00962736 22.97089068 53.02346136 21.89477539 51.03735352 C19.07189063 45.82702671 16.25118364 40.61553602 13.43359375 35.40234375 C12.84835938 34.32017578 12.263125 33.23800781 11.66015625 32.12304688 C10.54360057 30.05830503 9.42767563 27.99322192 8.3125 25.92773438 C7.80589844 24.99123047 7.29929687 24.05472656 6.77734375 23.08984375 C6.30280762 22.21183105 5.82827148 21.33381836 5.33935547 20.42919922 C4.14327376 18.25985671 2.89751687 16.13123445 1.62890625 14.00390625 C0 11 0 11 0 8 C0.66 7.67 1.32 7.34 2 7 C1.67 6.401875 1.34 5.80375 1 5.1875 C0 3 0 3 0 0 Z " fill="#E1E4E6" transform="translate(16,96)"/>
<path d="M0 0 C0.99 0.99 0.99 0.99 2 2 C1.6913753 4.33672984 1.35543427 6.66993089 1 9 C1.3403125 10.299375 1.3403125 10.299375 1.6875 11.625 C2 14 2 14 0.4296875 16.35546875 C-2.28506556 19.31027232 -5.25458607 21.4687058 -8.5625 23.6875 C-29.74628538 38.45137177 -44.52876904 57.62356693 -50 83 C-49.00033203 82.60167969 -49.00033203 82.60167969 -47.98046875 82.1953125 C-27.01935888 74.1626634 -6.03880001 75.49327112 14.45703125 84.33203125 C22.05842078 87.9106347 35.08684309 94.17368617 39 102 C39.12283119 104.33093612 39.17554232 106.66586039 39.1875 109 C39.20167969 110.258125 39.21585938 111.51625 39.23046875 112.8125 C39 116 39 116 37 118 C33.70076784 119.1114615 30.31686218 119.31115378 26.86328125 119.61328125 C-1.5799926 120.86782142 -1.5799926 120.86782142 -27 132 C-26.38511719 132.18175781 -25.77023437 132.36351562 -25.13671875 132.55078125 C-24.32847656 132.80214844 -23.52023437 133.05351562 -22.6875 133.3125 C-21.88699219 133.55613281 -21.08648437 133.79976562 -20.26171875 134.05078125 C-17.85072626 135.06264856 -16.61828487 135.9632801 -15 138 C-13.13955748 145.28673319 -13.49835635 153.63631823 -16.5625 160.5 C-20.72702886 164.77131165 -26.02179207 167.4167602 -32 168 C-32.64235596 168.09434326 -33.28471191 168.18868652 -33.9465332 168.28588867 C-37.48952453 168.59513893 -40.00242791 168.66857914 -43.02319336 166.64404297 C-45.04421398 164.69864496 -46.90163804 162.67251077 -48.75 160.5625 C-64.16613154 144.13689305 -82.27188227 135.11895999 -104 130 C-104.77408203 129.81099121 -105.54816406 129.62198242 -106.34570312 129.42724609 C-109.43597304 128.92982406 -112.2086062 129.05758717 -115.33203125 129.25390625 C-116.54310547 129.30224609 -117.75417969 129.35058594 -119.00195312 129.40039062 C-121.53236336 129.50804006 -124.06152882 129.65102403 -126.58789062 129.83007812 C-135.64148924 130.10384742 -135.64148924 130.10384742 -139.52661133 126.94702148 C-141.59233809 124.3937765 -143.32342561 121.8212792 -145 119 C-145.75669751 117.90147217 -146.51739359 116.80566684 -147.28515625 115.71484375 C-147.87167969 114.79832031 -148.45820313 113.88179688 -149.0625 112.9375 C-153.63954142 105.96933363 -158.25303008 99.56124252 -164.375 93.875 C-166.96777865 91.37231791 -168.47802522 89.73408275 -169 86.125 C-169 82.41666667 -169 78.70833333 -169 75 C-161.03175084 71.01587542 -147.9330574 75.06705822 -140.05761719 77.6328125 C-136.31974939 78.96353167 -132.64875586 80.44327954 -129 82 C-136.15875423 58.32480256 -145.72529792 36.87555507 -161.78515625 17.90234375 C-163 16 -163 16 -163 12 C-162.34 11.67 -161.68 11.34 -161 11 C-161.66 10.01 -162.32 9.02 -163 8 C-163 6.68 -163 5.36 -163 4 C-156.49981085 4.50994533 -151.01279767 5.7325106 -144.9375 8.0625 C-144.11749512 8.37268066 -143.29749023 8.68286133 -142.45263672 9.00244141 C-121.15924323 17.24411622 -101.42264353 29.034217 -88 48 C-87.42894531 47.21238281 -86.85789062 46.42476562 -86.26953125 45.61328125 C-70.69821468 24.52794053 -48.85809222 5.00605714 -22.15283203 0.27246094 C-15.07324447 -0.62352678 -7.07153872 -1.12577004 0 0 Z " fill="#75AD17" transform="translate(457,32)"/>
<path d="M0 0 C52.8 0 105.6 0 160 0 C158.52605667 4.42182998 157.14614984 7.87514843 154.98046875 11.90234375 C154.37678467 13.02842041 153.77310059 14.15449707 153.15112305 15.31469727 C152.49682279 16.52242864 151.8422759 17.73002643 151.1875 18.9375 C150.51132957 20.19254882 149.83530605 21.4476768 149.15942383 22.70288086 C144.40880138 31.5025909 139.52081443 40.22004504 134.56518555 48.90600586 C131.26069834 54.71418558 128.07882145 60.56937562 125 66.5 C96.82697145 120.69849317 96.82697145 120.69849317 84 128 C81.06973573 128.9175575 78.93170189 128.91721192 76 128 C65.15056839 121.33806831 58.31360563 108.65042298 52.3125 97.875 C51.61472758 96.63746577 50.91639381 95.4002479 50.2175293 94.16333008 C45.28372032 85.40565432 40.47507213 76.5801931 35.72167969 67.72338867 C32.1009861 60.98574532 28.3608573 54.32631314 24.5625 47.6875 C18.99628642 37.94194946 13.78340927 28.0325335 8.66821289 18.0456543 C5.26047612 11.37526643 5.26047612 11.37526643 1.59765625 4.84375 C0 2 0 2 0 0 Z " fill="#B31F13" transform="translate(64,128)"/>
<path d="M0 0 C0.33 0 0.66 0 1 0 C2.20147829 46.47318027 -21.60087073 94.85856752 -53 128 C-74.11790191 149.85487625 -103.88811841 167.3071649 -134.8203125 168.3359375 C-167.79524101 168.74574476 -192.24711728 159.83324485 -216.5 136.875 C-240.1625448 112.41104994 -254.98254632 75.17142889 -255.125 41.125 C-255.09404508 39.74971715 -255.05700482 38.37444955 -255 37 C-254.67 37 -254.34 37 -254 37 C-253.84144531 38.22332031 -253.68289062 39.44664062 -253.51953125 40.70703125 C-248.31958447 79.02545823 -233.44215557 113.82754537 -203.4140625 139.18359375 C-201.01125355 140.95904814 -198.58179966 142.49547177 -196 144 C-195.40525879 144.35255859 -194.81051758 144.70511719 -194.19775391 145.06835938 C-170.9501869 158.68503586 -143.61902634 163.48333096 -117.15966797 156.83398438 C-115.09157317 156.26301142 -113.04591755 155.64568861 -111 155 C-109.98703857 154.68651611 -109.98703857 154.68651611 -108.95361328 154.36669922 C-88.96891834 147.99165316 -72.13579996 136.35012485 -57 122 C-56.04222656 121.10667969 -55.08445312 120.21335937 -54.09765625 119.29296875 C-21.67807442 88.44216099 -5.79885337 43.33938075 0 0 Z " fill="#010100" transform="translate(447,320)"/>
<path d="M0 0 C6.66459725 3.73128163 9.95949451 10.35537615 13.4375 16.875 C13.97826172 17.83019531 14.51902344 18.78539062 15.07617188 19.76953125 C18.14507807 25.4262509 20.15668968 29.55265281 19 36 C15.31880396 42.19576036 9.28372741 45.29897808 3.1875 48.875 C2.22779297 49.46796875 1.26808594 50.0609375 0.27929688 50.671875 C-5.38528097 54.02808904 -9.39278877 56.24982317 -16 55 C-22.38944337 51.27688923 -25.36019847 44.93891949 -28.875 38.625 C-29.46796875 37.60921875 -30.0609375 36.5934375 -30.671875 35.546875 C-36.16570724 25.79975329 -36.16570724 25.79975329 -35 20 C-32.06769526 13.08230275 -25.46563641 10.21571921 -19.1875 6.625 C-18.11951172 5.98433594 -17.05152344 5.34367187 -15.95117188 4.68359375 C-5.51502281 -1.37027627 -5.51502281 -1.37027627 0 0 Z " fill="#7C5E20" transform="translate(310,336)"/>
<path d="M0 0 C7.05955376 2.931431 9.88601333 9.8389225 13.4375 16.25 C14.08654297 17.35730469 14.73558594 18.46460938 15.40429688 19.60546875 C20.53454282 28.75613014 20.53454282 28.75613014 20.22265625 33.484375 C17.46312049 41.41914236 10.00765976 44.73472867 3.125 48.8125 C2.15691406 49.40998047 1.18882812 50.00746094 0.19140625 50.62304688 C-9.13495206 56.17445063 -9.13495206 56.17445063 -15 55 C-21.72730453 52.09065921 -24.43101809 45.99530464 -27.875 39.8125 C-28.46796875 38.80896484 -29.0609375 37.80542969 -29.671875 36.77148438 C-32.95040731 30.96606484 -35.73793419 25.74752109 -34 19 C-30.37620314 12.76333674 -24.2277205 9.68827934 -18.125 6.125 C-17.15691406 5.53203125 -16.18882812 4.9390625 -15.19140625 4.328125 C-5.87976892 -1.17017514 -5.87976892 -1.17017514 0 0 Z " fill="#7C5E20" transform="translate(260,365)"/>
<path d="M0 0 C6.86655448 2.96489637 9.41300247 9.28340597 12.8125 15.625 C13.39708984 16.6871875 13.98167969 17.749375 14.58398438 18.84375 C20.51472118 29.64689977 20.51472118 29.64689977 20 35 C17.14076258 40.31306059 13.91698835 42.72844023 8.8125 45.5625 C8.14412109 45.945271 7.47574219 46.32804199 6.78710938 46.72241211 C5.46225658 47.47926473 4.13436693 48.23083082 2.80322266 48.9765625 C1.26993639 49.84679484 -0.2373714 50.76254557 -1.73828125 51.6875 C-6.2821232 54.44990478 -9.53575149 55.92789126 -15 55 C-21.67202845 51.79066986 -24.37068634 46.10361513 -27.875 39.8125 C-28.46796875 38.80896484 -29.0609375 37.80542969 -29.671875 36.77148438 C-32.95296099 30.96154293 -35.73146806 25.75180042 -34 19 C-30.33655572 12.57093586 -23.87997265 9.62634534 -17.5625 6.125 C-16.53833984 5.53203125 -15.51417969 4.9390625 -14.45898438 4.328125 C-13.46318359 3.76867187 -12.46738281 3.20921875 -11.44140625 2.6328125 C-10.54107666 2.12637207 -9.64074707 1.61993164 -8.71313477 1.09814453 C-5.57819861 -0.17072461 -3.35429001 -0.28792189 0 0 Z " fill="#7C5E20" transform="translate(338,386)"/>
<path d="M0 0 C6.62667615 3.83517676 9.9625917 10.39316203 13.4375 16.9375 C13.97826172 17.90107422 14.51902344 18.86464844 15.07617188 19.85742188 C17.93736069 25.14935516 19.82658582 28.95956518 19 35 C16.94111346 40.6276232 11.90795707 43.06305761 7 46 C6.37738281 46.37801758 5.75476563 46.75603516 5.11328125 47.14550781 C3.02310205 48.4065826 0.92036509 49.64374219 -1.1875 50.875 C-1.86449951 51.28073242 -2.54149902 51.68646484 -3.23901367 52.10449219 C-7.27117561 54.40801979 -10.24385023 55.83667046 -15 55 C-20.78209779 52.19767895 -23.15277708 48.11157242 -26.125 42.6875 C-26.54136719 41.95337891 -26.95773437 41.21925781 -27.38671875 40.46289062 C-28.20894736 39.01045858 -29.0239035 37.55388229 -29.83105469 36.09301758 C-30.94432495 34.09968718 -32.10578857 32.14145208 -33.2734375 30.1796875 C-35.34254888 26.36915206 -35.62214416 24.27724107 -35 20 C-31.81321861 13.346895 -26.12786489 10.69823144 -19.875 7.1875 C-18.35326172 6.31061523 -18.35326172 6.31061523 -16.80078125 5.41601562 C-6.14686169 -0.70537757 -6.14686169 -0.70537757 0 0 Z " fill="#7C5E20" transform="translate(331,257)"/>
<path d="M0 0 C6.26811632 4.10212408 9.29107303 9.93690494 12.875 16.375 C13.46796875 17.39078125 14.0609375 18.4065625 14.671875 19.453125 C20.16570724 29.20024671 20.16570724 29.20024671 19 35 C16.09795362 41.60022937 10.24268949 44.33483059 4.1875 47.8125 C3.21490234 48.39708984 2.24230469 48.98167969 1.24023438 49.58398438 C-4.70958665 53.06042009 -9.52863266 55.76340418 -16.5625 54.5625 C-22.92965049 50.48099328 -26.75062727 42.39238738 -30.375 35.9375 C-30.82488281 35.17373047 -31.27476562 34.40996094 -31.73828125 33.62304688 C-34.39801603 28.89777339 -35.62380367 25.56516982 -35 20 C-31.65439377 10.85534298 -17.20759149 5.42028385 -9 1 C-5.61670875 -0.12776375 -3.54843366 -0.41746278 0 0 Z " fill="#7C5E20" transform="translate(232,315)"/>
<path d="M0 0 C6.46109111 2.93104622 9.89712366 10.74813029 13.26123047 16.6340332 C13.92348633 17.76518555 13.92348633 17.76518555 14.59912109 18.91918945 C17.71160591 24.28620003 20.449425 29.48928264 18.94873047 35.8840332 C14.97111215 41.98080547 9.32222845 45.13035223 3.13623047 48.7590332 C2.17652344 49.35200195 1.21681641 49.9449707 0.22802734 50.5559082 C-5.4365505 53.91212224 -9.4440583 56.13385637 -16.05126953 54.8840332 C-22.0800828 51.27432866 -24.98038647 45.6423822 -28.36376953 39.6340332 C-28.90066406 38.73040039 -29.43755859 37.82676758 -29.99072266 36.89575195 C-33.11430128 31.42062675 -35.68831338 26.32779484 -35.05126953 19.8840332 C-32.36341588 12.98607868 -25.50387179 10.01378105 -19.36376953 6.4465332 C-18.31253906 5.79749023 -17.26130859 5.14844727 -16.17822266 4.47973633 C-6.25335589 -1.34425207 -6.25335589 -1.34425207 0 0 Z " fill="#7C5E20" transform="translate(409.05126953125,278.115966796875)"/>
<path d="M0 0 C6.08746076 4.05270178 8.96215335 9.46291987 12.375 15.8125 C12.92027344 16.77220703 13.46554687 17.73191406 14.02734375 18.72070312 C17.14022321 24.4354505 18.97299133 28.47813783 18 35 C14.90213293 41.449802 9.24104225 43.86623103 3.25 47.3125 C2.1775 47.95767578 1.105 48.60285156 0 49.26757812 C-9.86780409 55.0096193 -9.86780409 55.0096193 -16 54 C-21.6296868 51.94035849 -24.05947193 46.90741462 -27 42 C-27.37801758 41.3827002 -27.75603516 40.76540039 -28.14550781 40.12939453 C-29.40835503 38.05571368 -30.64451726 35.96802701 -31.875 33.875 C-32.28073242 33.20637939 -32.68646484 32.53775879 -33.10449219 31.84887695 C-35.64215291 27.42866405 -36.70020753 24.2208456 -36 19 C-34.00499889 14.89758645 -31.96393916 12.99475214 -28.03515625 10.73828125 C-27.07029297 10.17689453 -26.10542969 9.61550781 -25.11132812 9.03710938 C-24.10521484 8.46798828 -23.09910156 7.89886719 -22.0625 7.3125 C-21.06025391 6.73177734 -20.05800781 6.15105469 -19.02539062 5.55273438 C-16.36058373 4.01500391 -13.69263715 2.48844278 -11 1 C-10.30447021 0.60965576 -9.60894043 0.21931152 -8.89233398 -0.18286133 C-5.67461647 -1.57232082 -3.32446309 -0.85977494 0 0 Z " fill="#7C5E20" transform="translate(389,358)"/>
<path d="M0 0 C5.25074198 3.76149645 8.11547642 9.84348781 11.25 15.375 C11.79140625 16.29539062 12.3328125 17.21578125 12.890625 18.1640625 C18.18607314 27.43109674 18.18607314 27.43109674 18 33 C15.34653259 40.33173458 9.8638907 43.13382249 3.3125 46.875 C2.35666016 47.45507812 1.40082031 48.03515625 0.41601562 48.6328125 C-5.15941561 51.88609753 -10.38340007 54.71793499 -17 54 C-23.71074263 51.34749948 -26.52636207 44.82413845 -29.875 38.8125 C-30.46796875 37.80896484 -31.0609375 36.80542969 -31.671875 35.77148438 C-34.56866506 30.64203008 -37.08446909 26.04684394 -36.57348633 20.02807617 C-34.35752754 12.19156292 -26.28072508 8.25155907 -19.6875 4.5 C-18.33881836 3.67628906 -18.33881836 3.67628906 -16.96289062 2.8359375 C-11.17015637 -0.49813081 -6.52502819 -2.38485707 0 0 Z " fill="#7C5E20" transform="translate(283,287)"/>
<path d="M0 0 C5.27544929 4.26976163 8.11017856 9.98397369 11.3125 15.875 C11.86228516 16.84308594 12.41207031 17.81117188 12.97851562 18.80859375 C15.88724676 24.12018973 17.84990309 27.91437315 17 34 C14.94111346 39.6276232 9.90795707 42.06305761 5 45 C4.37738281 45.37801758 3.75476563 45.75603516 3.11328125 46.14550781 C1.02310205 47.4065826 -1.07963491 48.64374219 -3.1875 49.875 C-3.86449951 50.28073242 -4.54149902 50.68646484 -5.23901367 51.10449219 C-9.27117561 53.40801979 -12.24385023 54.83667046 -17 54 C-22.78209779 51.19767895 -25.15277708 47.11157242 -28.125 41.6875 C-28.54136719 40.95337891 -28.95773437 40.21925781 -29.38671875 39.46289062 C-30.20894736 38.01045858 -31.0239035 36.55388229 -31.83105469 35.09301758 C-32.94432495 33.09968718 -34.10578857 31.14145208 -35.2734375 29.1796875 C-37.34254888 25.36915206 -37.62214416 23.27724107 -37 19 C-34.14156412 13.71963816 -30.95383581 11.27329475 -25.875 8.4375 C-25.20847412 8.0554541 -24.54194824 7.6734082 -23.85522461 7.27978516 C-22.52295174 6.52193137 -21.18666906 5.77107695 -19.84619141 5.02783203 C-18.24207034 4.13476807 -16.65631961 3.20886108 -15.07421875 2.27734375 C-9.55985778 -0.80143633 -6.14471654 -1.87465928 0 0 Z " fill="#7C5E20" transform="translate(354,179)"/>
<path d="M0 0 C6.50731536 2.9299954 8.96415623 8.4154099 12.25 14.5 C12.77851563 15.45003906 13.30703125 16.40007812 13.8515625 17.37890625 C15.25392002 19.90955649 16.64111314 22.44576611 18 25 C18.37608398 25.70060547 18.75216797 26.40121094 19.13964844 27.12304688 C20.42998827 29.93806749 20.36776541 31.93528827 20 35 C16.81924893 41.49899858 11.42117443 44.27164906 5.3125 47.8125 C4.35666016 48.39708984 3.40082031 48.98167969 2.41601562 49.58398438 C-3.00260771 52.77162714 -8.51008188 55.91943712 -15 55 C-21.42845017 52.01239914 -23.88559021 46.28297836 -27.3125 40.375 C-28.28026367 38.79138672 -28.28026367 38.79138672 -29.26757812 37.17578125 C-35.12260813 27.17576175 -35.12260813 27.17576175 -34.52246094 20.94042969 C-32.94066946 15.06562658 -28.58182088 12.58925326 -23.69140625 9.5703125 C-21.6555867 8.40924886 -19.61235728 7.26109645 -17.5625 6.125 C-16.53833984 5.53203125 -15.51417969 4.9390625 -14.45898438 4.328125 C-13.46318359 3.76867187 -12.46738281 3.20921875 -11.44140625 2.6328125 C-10.54107666 2.12637207 -9.64074707 1.61993164 -8.71313477 1.09814453 C-5.57651162 -0.17140743 -3.35610905 -0.29303705 0 0 Z " fill="#7C5E20" transform="translate(359,307)"/>
<path d="M0 0 C6.72282107 3.54571997 10.00977775 10.48202811 13.4375 16.9375 C13.97826172 17.90107422 14.51902344 18.86464844 15.07617188 19.85742188 C20.09877959 29.14702375 20.09877959 29.14702375 19 35 C16.09890056 41.57866962 10.28490904 44.3305163 4.25 47.8125 C3.28578125 48.39708984 2.3215625 48.98167969 1.328125 49.58398438 C-4.15516471 52.79871197 -8.55973376 55.23979715 -15 55 C-20.81603288 52.40636371 -23.18777707 48.04770021 -26.125 42.6875 C-26.54136719 41.95337891 -26.95773438 41.21925781 -27.38671875 40.46289062 C-28.20896278 39.01043134 -29.02383983 37.5537736 -29.83081055 36.09277344 C-30.59448703 34.72584197 -31.37656526 33.36898611 -32.17895508 32.02441406 C-34.74736253 27.71994813 -35.65481016 25.05139265 -35 20 C-32.9381046 14.36415256 -27.87634042 11.99366056 -23 9 C-21.784269 8.20708787 -20.56948701 7.4127195 -19.35546875 6.6171875 C-18.05033803 5.78510965 -16.74434562 4.95438186 -15.4375 4.125 C-14.82487305 3.71926758 -14.21224609 3.31353516 -13.58105469 2.89550781 C-9.15290062 0.15000516 -5.19890109 -1.32855048 0 0 Z " fill="#7C5E20" transform="translate(253,236)"/>
<path d="M0 0 C5.79813577 3.97690844 8.44359827 9.299555 11.8125 15.3125 C12.40998047 16.33279297 13.00746094 17.35308594 13.62304688 18.40429688 C19.17156101 28.21406986 19.17156101 28.21406986 18 34 C15.06769526 40.91769725 8.46563641 43.78428079 2.1875 47.375 C1.11951172 48.01566406 0.05152344 48.65632813 -1.04882812 49.31640625 C-11.12113052 55.1592137 -11.12113052 55.1592137 -17 54 C-21.10640764 51.97524285 -23.02095017 49.94168983 -25.296875 46 C-25.86277344 45.030625 -26.42867188 44.06125 -27.01171875 43.0625 C-27.58535156 42.051875 -28.15898437 41.04125 -28.75 40 C-29.33910156 38.989375 -29.92820312 37.97875 -30.53515625 36.9375 C-37.58436416 24.75128311 -37.58436416 24.75128311 -36 18 C-32.06977887 11.93953296 -26.60863328 9.09731439 -20.375 5.6875 C-19.42109375 5.15060547 -18.4671875 4.61371094 -17.484375 4.06054688 C-7.28813888 -1.63354837 -7.28813888 -1.63354837 0 0 Z " fill="#7C5E20" transform="translate(382,229)"/>
<path d="M0 0 C5.7998138 3.97189842 8.44468236 9.30148992 11.8125 15.3125 C12.40998047 16.33279297 13.00746094 17.35308594 13.62304688 18.40429688 C18.96515963 27.84915222 18.96515963 27.84915222 18 34 C14.77852463 41.29070741 7.26147893 44.85165608 0.6875 48.75 C-0.12912109 49.25660156 -0.94574219 49.76320313 -1.78710938 50.28515625 C-7.13780816 53.44867697 -10.77278331 55.05830418 -17 54 C-23.02881327 50.39029545 -25.92911694 44.75834899 -29.3125 38.75 C-29.84939453 37.84636719 -30.38628906 36.94273437 -30.93945312 36.01171875 C-34.06303396 30.53658967 -36.63704544 25.44368702 -36 19 C-33.35609698 12.15143829 -26.51510368 9.4789859 -20.375 6.1875 C-19.3128125 5.60291016 -18.250625 5.01832031 -17.15625 4.41601562 C-6.50243387 -1.43273967 -6.50243387 -1.43273967 0 0 Z " fill="#7C5E20" transform="translate(290,416)"/>
<path d="M0 0 C6.54948292 2.87538274 9.06538946 8.60793837 12.3125 14.625 C13.1178418 16.07519531 13.1178418 16.07519531 13.93945312 17.5546875 C19.18855716 27.03352354 19.18855716 27.03352354 19.375 31.25 C19.42398438 31.99765625 19.47296875 32.7453125 19.5234375 33.515625 C18.52026743 38.27693967 15.53784865 40.9614404 11.65234375 43.58544922 C8.90403111 45.226075 6.12361516 46.78210985 3.3125 48.3125 C2.35021484 48.84939453 1.38792969 49.38628906 0.39648438 49.93945312 C-9.47576505 55.43327333 -9.47576505 55.43327333 -15 55 C-20.39271258 52.73682882 -22.35815439 48.64039315 -25.0625 43.75 C-25.69381836 42.64205078 -25.69381836 42.64205078 -26.33789062 41.51171875 C-27.17097659 40.04703739 -27.99672302 38.57815454 -28.81469727 37.10498047 C-29.5820213 35.74228884 -30.37044477 34.39117742 -31.18334961 33.05517578 C-33.17690421 29.76317302 -34.54357247 27.2643239 -34.4375 23.375 C-34.43621094 22.66085938 -34.43492187 21.94671875 -34.43359375 21.2109375 C-33.646331 17.19660672 -31.80309366 14.61166979 -28.56738281 12.1472168 C-25.47025678 10.3111691 -22.37098283 8.48280469 -19.25 6.6875 C-18.1775 6.04232422 -17.105 5.39714844 -16 4.73242188 C-5.74595729 -1.23437022 -5.74595729 -1.23437022 0 0 Z " fill="#7C5E20" transform="translate(302,207)"/>
<path d="M0 0 C1.18335938 0.36222656 2.36671875 0.72445312 3.5859375 1.09765625 C30.80507111 9.96039843 53.32620645 31.39258046 66.3984375 56.53515625 C76.94773348 77.57517717 84.27421548 101.28786614 84.0625 125 C84.05798828 125.67933594 84.05347656 126.35867188 84.04882812 127.05859375 C84.0372283 128.70576874 84.01930199 130.35289726 84 132 C83.67 132 83.34 132 83 132 C82.90501221 131.28158936 82.81002441 130.56317871 82.7121582 129.82299805 C78.10383692 95.52997691 69.64527069 64.33797055 46 38 C45.31679688 37.23429687 44.63359375 36.46859375 43.9296875 35.6796875 C32.14725489 23.20161312 16.54087354 13.6092734 0 9 C-0.90621094 8.73445312 -1.81242187 8.46890625 -2.74609375 8.1953125 C-14.57834849 4.82384236 -25.80128257 4.77488255 -38 5 C-38.96679688 5.01675781 -39.93359375 5.03351563 -40.9296875 5.05078125 C-68.93619741 6.74667718 -94.80039506 24.65623083 -114.67578125 42.921875 C-117.04888482 45.04370878 -119.49745493 47.03339821 -122 49 C-123.4375 46.5 -123.4375 46.5 -124 43 C-122.12960883 39.89757643 -119.57630258 37.52352916 -117 35 C-116.16275391 34.07574219 -116.16275391 34.07574219 -115.30859375 33.1328125 C-87.35552086 2.99102026 -39.66500112 -13.41222322 0 0 Z " fill="#957D4A" transform="translate(364,164)"/>
<path d="M0 0 C3.6578218 2.03993908 5.66946174 3.50419262 8 7 C8.3268413 14.43212509 5.88019989 21.78609515 3.75 28.8125 C3.43643555 29.86187744 3.12287109 30.91125488 2.79980469 31.99243164 C-2.44181109 49.29538547 -2.44181109 49.29538547 -5 54 C-9.38984651 55.46328217 -13.2689049 55.82631118 -17.52050781 53.796875 C-20.32035465 51.76784067 -21.57424733 49.98343068 -23.296875 47 C-23.86277344 46.030625 -24.42867188 45.06125 -25.01171875 44.0625 C-25.58535156 43.051875 -26.15898437 42.04125 -26.75 41 C-27.33910156 39.989375 -27.92820312 38.97875 -28.53515625 37.9375 C-32.1236357 31.73396771 -34.6252323 27.37774117 -34 20 C-30.81753498 13.09979296 -24.51216739 10.26287536 -18.125 6.625 C-16.51044922 5.66400391 -16.51044922 5.66400391 -14.86328125 4.68359375 C-5.74690792 -0.58839033 -5.74690792 -0.58839033 0 0 Z " fill="#7B5D1F" transform="translate(437,328)"/>
<path d="M0 0 C0.99 0.99 0.99 0.99 2 2 C1.625 5.125 1.625 5.125 1 8 C-2.51003269 9.11605408 -5.5899643 8.96996665 -9.25 8.8125 C-32.81532187 8.66552294 -53.52380765 21.01691401 -69.98828125 36.9765625 C-76.57362686 43.52186921 -82.83809205 50.25713808 -88 58 C-88.5671875 57.28328125 -89.134375 56.5665625 -89.71875 55.828125 C-104.81784252 37.10938702 -123.06877051 26.29500074 -145.2109375 17.82421875 C-145.98920898 17.52563965 -146.76748047 17.22706055 -147.56933594 16.91943359 C-149.280599 16.27212376 -150.99806359 15.64109131 -152.71972656 15.02197266 C-153.60885742 14.69116699 -154.49798828 14.36036133 -155.4140625 14.01953125 C-156.22053223 13.72796143 -157.02700195 13.4363916 -157.85791016 13.13598633 C-160.43595021 11.76880826 -161.55638175 10.52676764 -163 8 C-163 6.68 -163 5.36 -163 4 C-156.49981085 4.50994533 -151.01279767 5.7325106 -144.9375 8.0625 C-144.11749512 8.37268066 -143.29749023 8.68286133 -142.45263672 9.00244141 C-121.15924323 17.24411622 -101.42264353 29.034217 -88 48 C-87.42894531 47.21238281 -86.85789062 46.42476562 -86.26953125 45.61328125 C-70.69821468 24.52794053 -48.85809222 5.00605714 -22.15283203 0.27246094 C-15.07324447 -0.62352678 -7.07153872 -1.12577004 0 0 Z " fill="#8FBD43" transform="translate(457,32)"/>
<path d="M0 0 C10.34423934 5.5254943 19.03653788 25.33694697 22.88671875 36.0078125 C22.921875 38.21484375 22.921875 38.21484375 21.88671875 40.0078125 C15.99904956 44.55780325 9.4478255 48.39890423 1.88671875 48.0078125 C-4.58300192 44.91553554 -7.04873351 39.64555543 -10.36328125 33.5078125 C-10.89179688 32.55777344 -11.4203125 31.60773438 -11.96484375 30.62890625 C-13.36720127 28.09825601 -14.75439439 25.56204639 -16.11328125 23.0078125 C-16.48936523 22.30720703 -16.86544922 21.60660156 -17.25292969 20.88476562 C-18.54326952 18.06974501 -18.48104666 16.07252423 -18.11328125 13.0078125 C-15.40930664 6.65347216 -7.07998784 0.02617371 0 0 Z " fill="#7C5E20" transform="translate(413.11328125,205.9921875)"/>
<path d="M0 0 C4.866362 2.93818083 6.89330997 6.07544348 9.140625 11.23046875 C9.9741034 13.19220926 9.9741034 13.19220926 12 15 C-0.84563865 25.29110823 -14.24373821 33.10078735 -30 38 C-37.34020619 24.69587629 -37.34020619 24.69587629 -36 19 C-31.99099194 12.66746998 -26.07676145 9.16635094 -19.6875 5.5625 C-18.33881836 4.75135742 -18.33881836 4.75135742 -16.96289062 3.92382812 C-11.35964852 0.71908156 -6.51459316 -1.32864505 0 0 Z " fill="#7B5D1F" transform="translate(368,437)"/>
<path d="M0 0 C42.24 0 84.48 0 128 0 C128 2.64 128 5.28 128 8 C85.76 8 43.52 8 0 8 C0 5.36 0 2.72 0 0 Z " fill="#000000" transform="translate(80,480)"/>
<path d="M0 0 C1.32 0 2.64 0 4 0 C4.35602295 0.66193359 4.7120459 1.32386719 5.07885742 2.00585938 C13.15952764 17.02740273 21.26089646 32.03742716 29.39111328 47.03222656 C32.09547451 52.02072657 34.79761881 57.01042717 37.5 62 C38.58332285 64.00000568 39.66665618 66.00000568 40.75 68 C86.25 152 86.25 152 87.87744141 155.00463867 C88.95248969 156.98925609 90.02768317 158.97379485 91.10302734 160.95825195 C93.93936494 166.19294425 96.77259849 171.42928741 99.6015625 176.66796875 C100.19130859 177.75916016 100.78105469 178.85035156 101.38867188 179.97460938 C102.5185088 182.06525251 103.6474621 184.15637351 104.77539062 186.24804688 C105.28521484 187.19099609 105.79503906 188.13394531 106.3203125 189.10546875 C106.76648926 189.93199951 107.21266602 190.75853027 107.67236328 191.61010742 C108.62019421 193.31630767 109.6185635 194.99482959 110.64916992 196.65234375 C112.17661234 199.30694094 112.32294653 200.78752753 112.1875 203.8125 C112.14689453 204.99779297 112.14689453 204.99779297 112.10546875 206.20703125 C112.07066406 206.79871094 112.03585938 207.39039063 112 208 C109.55360499 204.91874325 107.68863149 201.73179943 105.84765625 198.2578125 C104.93959229 196.55189941 104.93959229 196.55189941 104.01318359 194.81152344 C103.53640167 193.91040833 103.53640167 193.91040833 103.04998779 192.99108887 C101.36701454 189.81071775 99.6728847 186.63629058 97.98046875 183.4609375 C97.64053894 182.82240845 97.30060913 182.18387939 96.95037842 181.52600098 C93.9609277 175.9144237 90.92772394 170.32740914 87.875 164.75 C82.10122262 154.19312019 76.36777361 143.61472748 70.64111328 133.03222656 C67.92877862 128.02074241 65.21428739 123.01042671 62.5 118 C61.41665618 116.00000568 60.33332285 114.00000568 59.25 112 C58.71375 111.01 58.1775 110.02 57.625 109 C26.75 52 26.75 52 25.12280273 48.99584961 C24.04689863 47.00962736 22.97089068 45.02346136 21.89477539 43.03735352 C19.07189063 37.82702671 16.25118364 32.61553602 13.43359375 27.40234375 C12.84835938 26.32017578 12.263125 25.23800781 11.66015625 24.12304688 C10.54360057 22.05830503 9.42767563 19.99322192 8.3125 17.92773438 C7.80589844 16.99123047 7.29929687 16.05472656 6.77734375 15.08984375 C6.30280762 14.21183105 5.82827148 13.33381836 5.33935547 12.42919922 C4.14327376 10.25985671 2.89751687 8.13123445 1.62890625 6.00390625 C0 3 0 3 0 0 Z " fill="#030404" transform="translate(16,104)"/>
<path d="M0 0 C1.32 0 2.64 0 4 0 C2.61886553 4.54799557 0.75826286 8.64363409 -1.4921875 12.8125 C-1.8338797 13.45413086 -2.1755719 14.09576172 -2.52761841 14.75683594 C-3.63882644 16.84037842 -4.75676728 18.9202205 -5.875 21 C-6.65395679 22.45686503 -7.43259982 23.91389786 -8.2109375 25.37109375 C-12.89215165 34.12416781 -17.62419192 42.84889382 -22.39990234 51.55078125 C-26.84110497 59.66119525 -31.17153161 67.82909334 -35.5 76 C-40.78921389 85.98373605 -46.11911696 95.94123721 -51.54956055 105.84912109 C-55.51207771 113.08560671 -59.42023435 120.3505215 -63.3125 127.625 C-63.62704132 128.21283264 -63.94158264 128.80066528 -64.26565552 129.40631104 C-65.86840603 132.40209204 -67.47051048 135.39821795 -69.07226562 138.39453125 C-72.23270825 144.30627703 -75.39742409 150.21573374 -78.5625 156.125 C-79.17778564 157.27379639 -79.79307129 158.42259277 -80.42700195 159.60620117 C-86.38532796 170.72668744 -92.36592828 181.8351097 -98.3515625 192.94091797 C-101.23573587 198.29321246 -104.11779761 203.64664394 -107 209 C-107.33 209 -107.66 209 -108 209 C-108.98725925 200.19849063 -105.6470875 194.5504573 -101.375 187.0625 C-100.68685441 185.82334523 -100.00068952 184.58308866 -99.31640625 183.34179688 C-97.90913926 180.79353916 -96.49291544 178.2506047 -95.06933594 175.71142578 C-91.97480853 170.17954115 -88.99254489 164.58748793 -86 159 C-84.8442055 156.85392129 -83.68795197 154.70808973 -82.53125 152.5625 C-78.84359199 145.71399227 -75.17089942 138.85750072 -71.5 132 C-63.78216983 117.58333306 -56.02871918 103.18598036 -48.27050781 88.79101562 C-41.98218074 77.12232072 -35.70090382 65.44997491 -29.44454956 53.76409912 C-27.25684988 49.67821603 -25.06776577 45.59307432 -22.87890625 41.5078125 C-21.61530734 39.14874426 -20.35219315 36.78942385 -19.08984375 34.4296875 C-17.22911611 30.95175427 -15.36464147 27.47583653 -13.5 24 C-12.67338867 22.453125 -12.67338867 22.453125 -11.83007812 20.875 C-10.23623046 17.90754543 -8.62001616 14.9532352 -7 12 C-6.39929688 10.87335938 -5.79859375 9.74671875 -5.1796875 8.5859375 C-4.57382812 7.48507813 -3.96796875 6.38421875 -3.34375 5.25 C-2.79912109 4.24453125 -2.25449219 3.2390625 -1.69335938 2.203125 C-0.85514648 1.11257812 -0.85514648 1.11257812 0 0 Z " fill="#040404" transform="translate(268,104)"/>
<path d="M0 0 C6.2387469 3.23136118 8.47088667 8.1644857 11.8125 14.125 C12.40998047 15.13304687 13.00746094 16.14109375 13.62304688 17.1796875 C16.92045866 22.99820612 19.75606182 28.22794411 18 35 C14.42173232 41.16130592 8.5483824 43.95381515 2.4375 47.3125 C1.01920898 48.1178418 1.01920898 48.1178418 -0.42773438 48.93945312 C-8.02652649 53.19799881 -8.02652649 53.19799881 -12 54 C-11.64981651 35.34477057 -6.26425632 17.43658975 0 0 Z " fill="#7C5F21" transform="translate(204,266)"/>
<path d="M0 0 C3.7323508 2.9022016 3.7323508 2.9022016 4.875 5.1875 C4.914992 7.18710012 4.91846799 9.18797242 4.875 11.1875 C0.97386821 10.65430033 -1.06269964 9.71430694 -4 7.125 C-22.35229632 -7.71562564 -44.00964519 -11.69622008 -67.125 -9.8125 C-72.41261513 -8.82522356 -77.18665655 -6.91906609 -82.125 -4.8125 C-83.44963168 -4.44611251 -84.78014652 -4.09579843 -86.125 -3.8125 C-86.61328125 -9.76953125 -86.61328125 -9.76953125 -86.125 -11.8125 C-82.64423913 -14.49050237 -78.86164714 -15.68869744 -74.6875 -16.9375 C-73.04974609 -17.43636719 -73.04974609 -17.43636719 -71.37890625 -17.9453125 C-45.65322139 -24.80137737 -20.47287022 -15.5156029 0 0 Z " fill="#8FBD43" transform="translate(491.125,128.8125)"/>
<path d="M0 0 C20.59878048 2.89175187 40.92379973 22.96581889 52.921875 38.6953125 C69.83163979 62.28929534 80.32197248 93.93908193 80.0625 123 C80.05798828 123.67933594 80.05347656 124.35867188 80.04882812 125.05859375 C80.0372283 126.70576874 80.01930199 128.35289726 80 130 C79.67 130 79.34 130 79 130 C78.90501221 129.28158936 78.81002441 128.56317871 78.7121582 127.82299805 C74.10383692 93.52997691 65.64527069 62.33797055 42 36 C40.97519531 34.85144531 40.97519531 34.85144531 39.9296875 33.6796875 C29.96887834 23.13078628 18.0319812 16.08051598 5 10 C2.99725152 9.00551595 0.99637907 8.00720932 -1 7 C-0.67 4.69 -0.34 2.38 0 0 Z " fill="#957E4A" transform="translate(368,166)"/>
<path d="M0 0 C2.47030915 9.45488885 4.42313967 18.87584661 5.75 28.5625 C5.87737549 29.47725098 6.00475098 30.39200195 6.13598633 31.33447266 C6.82379919 36.60465196 7.12401433 41.68598616 7 47 C2.34969818 46.72645283 -0.39655402 46.20608862 -3.6237793 42.76342773 C-6.67344221 38.85572591 -8.95135404 34.4685905 -11.3125 30.125 C-12.13717773 28.67287109 -12.13717773 28.67287109 -12.97851562 27.19140625 C-15.88724676 21.87981027 -17.84990309 18.08562685 -17 12 C-14.78237574 5.9384937 -6.48347801 0 0 0 Z " fill="#7C5E20" transform="translate(441,257)"/>
<path d="M0 0 C2.65674502 4.53860607 3.65728029 7.7417577 3 13 C-0.16669683 19.52503814 -5.62496072 22.27851352 -11.75 25.8125 C-12.71421875 26.39708984 -13.6784375 26.98167969 -14.671875 27.58398438 C-20.19624989 30.82279927 -24.53850886 32.98560915 -31 33 C-35.16720246 30.91639877 -37.11668753 29.18024964 -39 25 C-32.34199628 19.09424965 -25.60020267 13.50430178 -18.1875 8.5625 C-17.29212524 7.96236084 -17.29212524 7.96236084 -16.37866211 7.35009766 C-5.13050381 0 -5.13050381 0 0 0 Z " fill="#7C5E20" transform="translate(290,179)"/>
<path d="M0 0 C3.975101 2.77740344 5.9599832 6.63339994 8.25 10.8125 C8.66636719 11.54662109 9.08273438 12.28074219 9.51171875 13.03710938 C10.33424686 14.49007047 11.14928443 15.94730078 11.95629883 17.40893555 C12.717404 18.77072075 13.49770855 20.12200726 14.29956055 21.46020508 C17.27313587 26.42677202 17.93546428 28.82675007 17.125 34.5 C15.68854217 36.9965743 14.25183203 38.47444568 12.125 40.5 C11.465 40.5 10.805 40.5 10.125 40.5 C9.795 41.16 9.465 41.82 9.125 42.5 C3.41957207 34.53145869 -1.6267804 26.50217333 -5.8125 17.625 C-6.17722412 16.85373779 -6.54194824 16.08247559 -6.91772461 15.2878418 C-9.28419623 10.13501399 -11.18885659 4.91201523 -12.875 -0.5 C-8.09514726 -1.76163495 -4.54439905 -2.37099081 0 0 Z " fill="#7B5D1F" transform="translate(212.875,395.5)"/>
<path d="M0 0 C0.125 2.875 0.125 2.875 0 6 C-3.41638872 9.41638872 -7.46495572 9.20458431 -12.13671875 9.61328125 C-41.30464444 11.83329579 -41.30464444 11.83329579 -68 23 C-70.69921875 23.1953125 -70.69921875 23.1953125 -73.6875 23.125 C-75.17830078 23.09792969 -75.17830078 23.09792969 -76.69921875 23.0703125 C-77.45847656 23.04710937 -78.21773438 23.02390625 -79 23 C-69.27225864 9.40005091 -48.9410907 5.34748813 -33.4453125 2.62109375 C-27.11790545 1.67007773 -20.73689648 1.15167702 -14.36083984 0.64575195 C-13.46316895 0.57445068 -12.56549805 0.50314941 -11.640625 0.4296875 C-10.44228027 0.34050049 -10.44228027 0.34050049 -9.21972656 0.24951172 C-6.99681589 0.05982885 -6.99681589 0.05982885 -4.89746094 -0.58935547 C-3 -1 -3 -1 0 0 Z " fill="#000100" transform="translate(496,142)"/>
<path d="M0 0 C1.22589844 0.01353516 1.22589844 0.01353516 2.4765625 0.02734375 C3.10304688 0.03894531 3.72953125 0.05054688 4.375 0.0625 C-4.11911751 14.09748225 -13.81718228 25.75438617 -25.625 37.0625 C-29.48040131 31.27939803 -32.69126472 26.25978684 -31.625 19.0625 C-28.470294 12.56380563 -23.1911091 10.09103536 -17 6.75 C-16.03320312 6.21310547 -15.06640625 5.67621094 -14.0703125 5.12304688 C-4.69791767 -0.06711311 -4.69791767 -0.06711311 0 0 Z " fill="#7B5D1F" transform="translate(413.625,407.9375)"/>
<path d="M0 0 C14.55411487 1.73944792 27.42111057 12.59654273 38 22 C33.17738694 26.09191411 28.79219715 29.50139337 22.5 30.625 C17.66569687 29.76173158 15.27312753 27.58906984 12 24 C9.58074161 20.38614973 7.56408808 16.6075148 5.5625 12.75 C4.75135742 11.24179688 4.75135742 11.24179688 3.92382812 9.703125 C0 2.32176438 0 2.32176438 0 0 Z " fill="#7C5E20" transform="translate(367,174)"/>
<path d="M0 0 C0.5775 0.226875 1.155 0.45375 1.75 0.6875 C1.46906952 4.22421402 1.25447025 6.15200082 -1.21875 8.77734375 C-2.0540625 9.38707031 -2.889375 9.99679688 -3.75 10.625 C-5.10931641 11.64400391 -5.10931641 11.64400391 -6.49609375 12.68359375 C-7.40488281 13.34488281 -8.31367188 14.00617187 -9.25 14.6875 C-12.276063 16.98851629 -15.27380652 19.32234801 -18.25 21.6875 C-18.96800781 22.25597656 -19.68601562 22.82445313 -20.42578125 23.41015625 C-36.89264596 37.18616562 -46.03998072 55.22314542 -51.25 75.6875 C-51.58 75.6875 -51.91 75.6875 -52.25 75.6875 C-51.7453632 51.46493359 -39.13381131 31.81208066 -22.1953125 15.33203125 C-17.12933319 10.78339996 -11.73152081 6.71780886 -6.25 2.6875 C-5.51136719 2.09324219 -4.77273438 1.49898437 -4.01171875 0.88671875 C-2.25 -0.3125 -2.25 -0.3125 0 0 Z " fill="#020300" transform="translate(457.25,41.3125)"/>
<path d="M0 0 C3 4.38461538 3 4.38461538 3 7 C1.65421875 7.65742188 1.65421875 7.65742188 0.28125 8.328125 C-13.91419636 15.46336156 -26.05959386 24.79690422 -37.546875 35.72265625 C-39.62066697 37.64784848 -41.69884478 39.36015808 -44 41 C-45.4375 38.5 -45.4375 38.5 -46 35 C-44.12960883 31.89757643 -41.57630258 29.52352916 -39 27 C-38.16275391 26.07574219 -38.16275391 26.07574219 -37.30859375 25.1328125 C-29.64851691 16.87295336 -12.06702095 0 0 0 Z " fill="#907849" transform="translate(286,172)"/>
<path d="M0 0 C5.10970004 1.72610735 10.17081723 3.58540861 15 6 C15.6328125 8.28515625 15.6328125 8.28515625 16.125 11.0625 C16.37636719 12.44115234 16.37636719 12.44115234 16.6328125 13.84765625 C16.75398438 14.55792969 16.87515625 15.26820312 17 16 C15.61941406 15.40251953 15.61941406 15.40251953 14.2109375 14.79296875 C2.20968491 9.71969744 -9.35475207 6.83572339 -22.453125 6.30859375 C-25 6 -25 6 -27 4 C-27.125 0.875 -27.125 0.875 -27 -2 C-19.37001002 -5.81499499 -7.68586273 -1.99176321 0 0 Z " fill="#8EBC41" transform="translate(315,109)"/>
<path d="M0 0 C3.72886409 2.77681368 5.7284878 5.99781183 8 10 C8.66 10.66 9.32 11.32 10 12 C1.66633487 13.86969861 -6.29031373 14.27681138 -14.8125 14.1875 C-16.59430664 14.1865332 -16.59430664 14.1865332 -18.41210938 14.18554688 C-23.74166965 14.158645 -28.74862478 13.98172562 -34 13 C-34 12.67 -34 12.34 -34 12 C-32.824375 11.690625 -31.64875 11.38125 -30.4375 11.0625 C-26.36457832 9.75196999 -23.07172371 7.86653242 -19.50756836 5.56665039 C-7.33272948 -2.2834999 -7.33272948 -2.2834999 0 0 Z " fill="#7B5D1F" transform="translate(319,466)"/>
<path d="M0 0 C3.50465388 3.18820657 5.92236189 6.76342939 8.3125 10.8125 C8.70348877 11.47338623 9.09447754 12.13427246 9.49731445 12.81518555 C22.5913559 35.32882477 31.29667949 61.77189691 31.0625 88 C31.05798828 88.67933594 31.05347656 89.35867188 31.04882812 90.05859375 C31.0372283 91.70576874 31.01930199 93.35289726 31 95 C30.67 95 30.34 95 30 95 C29.90501221 94.28158936 29.81002441 93.56317871 29.7121582 92.82299805 C25.71758272 63.0971927 19.61051487 32.10265283 -0.796875 8.74609375 C-3 6 -3 6 -3 3 C-1.5 1.3125 -1.5 1.3125 0 0 Z " fill="#917845" transform="translate(417,201)"/>
<path d="M0 0 C3.46836061 0.25782504 4.80125465 0.80559698 7.32421875 3.2734375 C21.3365601 21.66318796 32.81714364 45.10956558 37 68 C36.58984375 70.37109375 36.58984375 70.37109375 36 72 C33.85636999 69.85636999 33.49500093 68.85598005 32.66015625 66.01953125 C25.81916699 43.71973985 16.3310808 23.76075532 1.21484375 5.90234375 C0 4 0 4 0 0 Z " fill="#020300" transform="translate(294,44)"/>
<path d="M0 0 C6.22132311 0.7426839 8.75471511 4.30595578 12.52636719 9.03662109 C16.38683671 14.18007634 19.89014226 19.58782158 23.45898438 24.93530273 C27.44072933 30.8578957 31.47348883 36.27241925 36.4609375 41.390625 C38 43 38 43 39 45 C34.86772708 46.54960234 34.86772708 46.54960234 32 46 C26.15522451 40.82917477 22.18701545 33.36220091 17.93359375 26.88671875 C13.97972787 20.98387655 9.83359329 15.71287491 4.625 10.875 C1.97638988 8.32865282 0.51707348 6.67860848 0 3 C0 2.01 0 1.02 0 0 Z " fill="#020300" transform="translate(288,115)"/>
<path d="M0 0 C3.31565482 4.18060825 4.44147417 7.51296394 4.33203125 12.9453125 C3.7462865 16.57003885 1.73603881 18.76714074 -1 21 C-8.53298153 26 -8.53298153 26 -13 26 C-13 26.66 -13 27.32 -13 28 C-18.2734375 31.22265625 -18.2734375 31.22265625 -20 32 C-20.66 31.67 -21.32 31.34 -22 31 C-16.07027833 21.6040072 -10.13432104 12.53089804 -3 4 C-1.991586 2.67301885 -0.98887073 1.34160816 0 0 Z " fill="#836E42" transform="translate(239,207)"/>
<path d="M0 0 C-3.50139008 3.75404642 -7.743266 6.08332527 -12.125 8.6875 C-12.94226563 9.19861328 -13.75953125 9.70972656 -14.6015625 10.23632812 C-19.99228628 13.43067315 -24.6828216 15.32753438 -31 14 C-34.56232627 12.03973337 -36.69082882 9.92751353 -38 6 C-25.29174676 1.00747194 -13.64343386 -0.21098094 0 0 Z " fill="#7C5E20" transform="translate(338,168)"/>
<path d="M0 0 C0.33 0 0.66 0 1 0 C1.310487 4.50206145 1.40551164 7.12139144 -0.5 11.25 C-4.58633574 15.74496931 -9.91255542 18.40610297 -16 19 C-16.6909375 19.08636719 -17.381875 19.17273438 -18.09375 19.26171875 C-21.52018954 19.51870172 -23.98370122 19.67407572 -26.9140625 17.73046875 C-28.5625 16.125 -28.5625 16.125 -31 13 C-31 12.34 -31 11.68 -31 11 C-30.43603516 10.96559814 -29.87207031 10.93119629 -29.29101562 10.89575195 C-26.69193648 10.72412971 -24.09656789 10.51854787 -21.5 10.3125 C-20.613125 10.25900391 -19.72625 10.20550781 -18.8125 10.15039062 C-12.46934302 9.61402073 -7.97478072 8.03490223 -3 4 C-1.11696038 1.85823993 -1.11696038 1.85823993 0 0 Z " fill="#010100" transform="translate(441,181)"/>
<path d="M0 0 C9.29969244 -0.69602688 17.20121611 1.34017869 26 4 C25.67 6.64 25.34 9.28 25 12 C23.08380859 11.55527344 23.08380859 11.55527344 21.12890625 11.1015625 C16.09319884 9.98251641 11.03583507 9.15023171 5.9375 8.375 C5.07189453 8.2409375 4.20628906 8.106875 3.31445312 7.96875 C1.21004026 7.64320547 -0.89492305 7.32122232 -3 7 C-2.01 4.69 -1.02 2.38 0 0 Z " fill="#AD9051" transform="translate(342,161)"/>
<path d="M0 0 C3.5170758 1.06059679 6.36860133 2.36860133 9 5 C9.75 8.5 9.75 8.5 10 12 C9.34 12.66 8.68 13.32 8 14 C7.484375 13.54625 6.96875 13.0925 6.4375 12.625 C-0.22465102 8.18356599 -8.24972319 8.44287296 -16 8 C-11.20409455 2.03752296 -8.13881651 -0.99871924 0 0 Z " fill="#8EBD42" transform="translate(433,165)"/>
<path d="M0 0 C3.09909767 0.04414669 4.8221408 0.17743465 7.3828125 1.9609375 C11.98159274 7.01340907 15.74629127 13.26631862 18.375 19.5625 C18.045 20.2225 17.715 20.8825 17.375 21.5625 C8.56891933 16.1384648 0.69915301 9.79692349 -5.625 1.5625 C-3.99839402 -0.06410598 -2.24476808 0.15937175 0 0 Z " fill="#7A5C1F" transform="translate(235.625,444.4375)"/>
<path d="M0 0 C0 3.20077573 -0.42833374 4.11671993 -1.9765625 6.80859375 C-2.60812256 7.92161865 -2.60812256 7.92161865 -3.25244141 9.05712891 C-3.70538574 9.84265137 -4.15833008 10.62817383 -4.625 11.4375 C-8.64589136 18.52790474 -12.45767577 25.65615708 -16 33 C-16.99 32.67 -17.98 32.34 -19 32 C-17.48772173 25.44679417 -14.98354344 19.55671 -12 13.5625 C-11.65582031 12.86447266 -11.31164062 12.16644531 -10.95703125 11.44726562 C-8.07241059 5.7719679 -5.49138189 3.11673026 0 0 Z " fill="#AE8E50" transform="translate(224,235)"/>
<path d="M0 0 C4.15263703 3.87254714 7.41357758 8.72356648 8.42578125 14.37890625 C8.58399223 19.30010056 7.62180569 22.73956575 5 27 C2.80129993 23.30044814 2.13083739 19.36388722 1.375 15.1875 C1.2409375 14.50107422 1.106875 13.81464844 0.96875 13.10742188 C0.14513211 8.66576824 -0.12987234 4.51601543 0 0 Z " fill="#76591E" transform="translate(193,359)"/>
<path d="M0 0 C0.66 0 1.32 0 2 0 C2.41176916 4.77652229 2.58684868 7.03453927 0.0625 11.1875 C-3.26510229 14.6680955 -7.53556484 17.23703052 -12 19 C-12.66 18.67 -13.32 18.34 -14 18 C-12.41727985 15.93702698 -10.83384324 13.87461051 -9.25 11.8125 C-8.8065625 11.23435547 -8.363125 10.65621094 -7.90625 10.06054688 C-7.02652191 8.91560664 -6.14438805 7.77251058 -5.25976562 6.63134766 C-4.09369132 5.12132662 -2.94451322 3.59829858 -1.796875 2.07421875 C-1.20390625 1.38972656 -0.6109375 0.70523438 0 0 Z " fill="#7D5F21" transform="translate(241,214)"/>
<path d="M0 0 C2.50816459 2.50816459 3.61410019 3.90837736 5 7 C3.75823305 7.70226141 2.50614401 8.38629109 1.25 9.0625 C0.55390625 9.44535156 -0.1421875 9.82820312 -0.859375 10.22265625 C-3.4207452 11.15278886 -4.51559919 11.08040119 -7 10 C-9 7 -9 7 -9 4 C-6.03 2.68 -3.06 1.36 0 0 Z " fill="#AE8F52" transform="translate(295,167)"/>
<path d="M0 0 C0.33 0 0.66 0 1 0 C1.144375 0.78375 1.28875 1.5675 1.4375 2.375 C1.87798925 4.96421018 1.87798925 4.96421018 3 7 C2.44005013 9.57576941 1.82081595 12.085963 1.125 14.625 C-0.03681431 18.89566915 -1.04811677 22.98138145 -1.4453125 27.3984375 C-1.62835938 28.58695312 -1.81140625 29.77546875 -2 31 C-2.99 31.66 -3.98 32.32 -5 33 C-4.62983489 21.65443925 -2.52833097 11.03057884 0 0 Z " fill="#705C34" transform="translate(197,287)"/>
<path d="M0 0 C1.32 1.32 2.64 2.64 4 4 C2.61811547 7.21043882 1.07578097 9.04936365 -1.625 11.25 C-2.25664062 11.77078125 -2.88828125 12.2915625 -3.5390625 12.828125 C-4.02117187 13.21484375 -4.50328125 13.6015625 -5 14 C-6.4375 11.5 -6.4375 11.5 -7 8 C-5.02044532 4.97372189 -2.60129106 2.49977726 0 0 Z " fill="#AE8F50" transform="translate(247,199)"/>
<path d="M0 0 C3.15747633 0 4.35264841 1.28995536 6.8125 3.3125 C9 6 9 6 9 8.25 C8 10 8 10 5 11 C2.36 8.36 -0.28 5.72 -3 3 C-2.01 2.01 -1.02 1.02 0 0 Z " fill="#AB8D4F" transform="translate(408,194)"/>
<path d="M0 0 C0.33 0 0.66 0 1 0 C2.6950751 9.8223548 3.25068829 19.05603122 3 29 C2.67 29 2.34 29 2 29 C1.46721367 24.91813323 0.95084629 20.83435345 0.4375 16.75 C0.28603516 15.59113281 0.13457031 14.43226563 -0.02148438 13.23828125 C-0.16005859 12.12324219 -0.29863281 11.00820313 -0.44140625 9.859375 C-0.57232666 8.83295898 -0.70324707 7.80654297 -0.83813477 6.74902344 C-0.98863508 4.19301503 -0.79012848 2.41329977 0 0 Z " fill="#896D35" transform="translate(445,267)"/>
<path d="M0 0 C3.38370684 3.38370684 3.05529986 7.2332093 3.0625 11.8125 C3.04655989 13.20839779 3.02736707 14.60427948 3 16 C-0.39379264 12.60620736 -0.89043252 7.71655718 -1.1875 3.0625 C-1 1 -1 1 0 0 Z " fill="#8D7440" transform="translate(442,255)"/>
<path d="M0 0 C0.66 0 1.32 0 2 0 C2.69937202 1.4317616 3.38412718 2.87067032 4.0625 4.3125 C4.63677734 5.51326172 4.63677734 5.51326172 5.22265625 6.73828125 C6 9 6 9 5 12 C4.34 12 3.68 12 3 12 C2.49166409 10.75336669 1.99368855 9.50250613 1.5 8.25 C1.2215625 7.55390625 0.943125 6.8578125 0.65625 6.140625 C0 4 0 4 0 0 Z " fill="#AB8B4B" transform="translate(437,244)"/>
<path d="M0 0 C1.32 0.99 2.64 1.98 4 3 C2.50902342 6.7952131 0.24299151 8.61042731 -3 11 C-2.44894091 7.0507432 -1.61064629 3.65079826 0 0 Z " fill="#665533" transform="translate(204,266)"/>
<path d="M0 0 C1.32 0.99 2.64 1.98 4 3 C2 6 2 6 0 8 C0.66 8.33 1.32 8.66 2 9 C0.68 9.33 -0.64 9.66 -2 10 C-1.34 6.7 -0.68 3.4 0 0 Z " fill="#5B4C2D" transform="translate(200,277)"/>
<path d="M0 0 C0.33 0 0.66 0 1 0 C1.33 3.96 1.66 7.92 2 12 C1.01 12.66 0.02 13.32 -1 14 C-0.67 9.38 -0.34 4.76 0 0 Z " fill="#3B3019" transform="translate(193,306)"/>
<path d="M0 0 C0.33 0 0.66 0 1 0 C1.144375 0.78375 1.28875 1.5675 1.4375 2.375 C1.87798925 4.96421018 1.87798925 4.96421018 3 7 C2.01 7.99 1.02 8.98 0 10 C-0.74926071 6.33694766 -1.2380014 3.57644848 0 0 Z " fill="#524527" transform="translate(197,287)"/>
<path d="M0 0 C0.66 0.33 1.32 0.66 2 1 C1.1875 3.4375 1.1875 3.4375 0 6 C-0.99 6.33 -1.98 6.66 -3 7 C-2.25 2.25 -2.25 2.25 0 0 Z " fill="#917949" transform="translate(204,273)"/>
</svg>
